<?xml version="1.0"?>
<svg width="284.929" height="284.929" xmlns="http://www.w3.org/2000/svg" xmlns:svg="http://www.w3.org/2000/svg" enable-background="new 0 0 284.929 284.929" version="1.1" xml:space="preserve">

 <g class="layer">
  <title>Layer 1</title>
  <g id="svg_1">
   <path d="m282.08,195.28l-133.05,-133.04c-1.9,-1.9 -4.09,-2.86 -6.56,-2.86s-4.67,0.96 -6.57,2.86l-133.04,133.04c-1.91,1.91 -2.86,4.1 -2.86,6.57c0,2.48 0.95,4.67 2.86,6.57l14.27,14.27c1.9,1.9 4.09,2.85 6.57,2.85c2.47,0 4.66,-0.95 6.56,-2.85l112.21,-112.2l112.2,112.21c1.91,1.9 4.1,2.85 6.57,2.85c2.48,0 4.67,-0.96 6.57,-2.85l14.27,-14.28c1.9,-1.9 2.85,-4.09 2.85,-6.57c0,-2.47 -0.95,-4.66 -2.85,-6.57z" fill="#1e40af" id="svg_2" stroke="#1e40af"/>
  </g>
  <g id="svg_3"/>
  <g id="svg_4"/>
  <g id="svg_5"/>
  <g id="svg_6"/>
  <g id="svg_7"/>
  <g id="svg_8"/>
  <g id="svg_9"/>
  <g id="svg_10"/>
  <g id="svg_11"/>
  <g id="svg_12"/>
  <g id="svg_13"/>
  <g id="svg_14"/>
  <g id="svg_15"/>
  <g id="svg_16"/>
  <g id="svg_17"/>
 </g>
</svg>